HIERARCHY
ROOT Hips
{
	OFFSET 0.00000 0.00000 0.00000
	CHANNELS 6 Xposition Yposition Zposition Zrotation Yrotation Xrotation 
	JOINT LHipJoint
	{
		OFFSET 0 0 0
		CHANNELS 3 Zrotation Yrotation Xrotation
		JOINT LeftUpLeg
		{
			OFFSET 1.28858 -1.83292 1.03970
			CHANNELS 3 Zrotation Yrotation Xrotation
			JOINT LeftLeg
			{
				OFFSET 2.47846 -6.80952 0.00000
				CHANNELS 3 Zrotation Yrotation Xrotation
				JOINT LeftFoot
				{
					OFFSET 2.75274 -7.56311 0.00000
					CHANNELS 3 Zrotation Yrotation Xrotation
					JOINT LeftToeBase
					{
						OFFSET 0.12848 -0.35301 1.68223
						CHANNELS 3 Zrotation Yrotation Xrotation
						End Site
						{
							OFFSET 0.00000 -0.00000 0.87311
						}
					}
				}
			}
		}
	}
	JOINT RHipJoint
	{
		OFFSET 0 0 0
		CHANNELS 3 Zrotation Yrotation Xrotation
		JOINT RightUpLeg
		{
			OFFSET -1.31183 -1.83292 1.03970
			CHANNELS 3 Zrotation Yrotation Xrotation
			JOINT RightLeg
			{
				OFFSET -2.44740 -6.72417 0.00000
				CHANNELS 3 Zrotation Yrotation Xrotation
				JOINT RightFoot
				{
					OFFSET -2.67343 -7.34519 0.00000
					CHANNELS 3 Zrotation Yrotation Xrotation
					JOINT RightToeBase
					{
						OFFSET -0.16914 -0.46471 1.77626
						CHANNELS 3 Zrotation Yrotation Xrotation
						End Site
						{
							OFFSET -0.00000 -0.00000 0.92777
						}
					}
				}
			}
		}
	}
	JOINT LowerBack
	{
		OFFSET 0 0 0
		CHANNELS 3 Zrotation Yrotation Xrotation
		JOINT Spine
		{
			OFFSET 0.01249 2.14252 0.03842
			CHANNELS 3 Zrotation Yrotation Xrotation
			JOINT Spine1
			{
				OFFSET -0.02957 2.14199 -0.03751
				CHANNELS 3 Zrotation Yrotation Xrotation
				JOINT Neck
				{
					OFFSET 0 0 0
					CHANNELS 3 Zrotation Yrotation Xrotation
					JOINT Neck1
					{
						OFFSET -0.01678 1.65709 -0.05476
						CHANNELS 3 Zrotation Yrotation Xrotation
						JOINT Head
						{
							OFFSET 0.07912 1.58331 -0.11843
							CHANNELS 3 Zrotation Yrotation Xrotation
							End Site
							{
								OFFSET 0.03298 1.73940 -0.04271
							}
						}
					}
				}
				JOINT LeftShoulder
				{
					OFFSET 0 0 0
					CHANNELS 3 Zrotation Yrotation Xrotation
					JOINT LeftArm
					{
						OFFSET 3.39556 1.16496 0.08673
						CHANNELS 3 Zrotation Yrotation Xrotation
						JOINT LeftForeArm
						{
							OFFSET 5.23910 -0.00000 -0.00000
							CHANNELS 3 Zrotation Yrotation Xrotation
							JOINT LeftHand
							{
								OFFSET 3.31467 -0.00000 0.00000
								CHANNELS 3 Zrotation Yrotation Xrotation
								JOINT LeftFingerBase
								{
									OFFSET 0 0 0
									CHANNELS 3 Zrotation Yrotation Xrotation
									JOINT LeftHandIndex1
									{
										OFFSET 0.96590 -0.00000 0.00000
										CHANNELS 3 Zrotation Yrotation Xrotation
										End Site
										{
											OFFSET 0.77873 -0.00000 0.00000
										}
									}
								}
								JOINT LThumb
								{
									OFFSET 0 0 0
									CHANNELS 3 Zrotation Yrotation Xrotation
									End Site
									{
										OFFSET 0.79062 -0.00000 0.79062
									}
								}
							}
						}
					}
				}
				JOINT RightShoulder
				{
					OFFSET 0 0 0
					CHANNELS 3 Zrotation Yrotation Xrotation
					JOINT RightArm
					{
						OFFSET -3.27193 1.31331 0.33940
						CHANNELS 3 Zrotation Yrotation Xrotation
						JOINT RightForeArm
						{
							OFFSET -5.30252 -0.00000 0.00000
							CHANNELS 3 Zrotation Yrotation Xrotation
							JOINT RightHand
							{
								OFFSET -3.67875 -0.00000 0.00000
								CHANNELS 3 Zrotation Yrotation Xrotation
								JOINT RightFingerBase
								{
									OFFSET 0 0 0
									CHANNELS 3 Zrotation Yrotation Xrotation
									JOINT RightHandIndex1
									{
										OFFSET -0.59481 -0.00000 0.00000
										CHANNELS 3 Zrotation Yrotation Xrotation
										End Site
										{
											OFFSET -0.47955 -0.00000 0.00000
										}
									}
								}
								JOINT RThumb
								{
									OFFSET 0 0 0
									CHANNELS 3 Zrotation Yrotation Xrotation
									End Site
									{
										OFFSET -0.48687 -0.00000 0.48687
									}
								}
							}
						}
					}
				}
			}
		}
	}
}
MOTION
Frames: 11
Frame Time: .0083333
8.2897 18.4147 0.0975 0 0 0 0 0 0 -21 0 0 0 0 0 0 0 0 0 0 0 0 0 0 21 0 0 0 0 0 0 0 0 0 0 0 0 0 0 0 0 0 0 0 0 0 0 -16 0 0 21 0 0 11 0 0 0 -8 0 0 0 0 0 0 0 0 0 0 0 0 0 0 0 0 0 0 0 0 8 0 0 0 0 0 0 0 0 0 0 0 0 0 0 0 0 0
8.2897 18.4147 0.0975 0.0953 -59.6506 4.8179 0.0000 0.0000 0.0000 -9.0130 -0.8359 0.7909 0.0011 0.2176 0.5978 0.1263 0.7725 -7.0404 2.3765 9.6099 27.7225 0.0000 0.0000 0.0000 17.1074 11.7142 13.5300 -0.0809 1.8348 -5.0493 -0.5437 -5.2607 -16.8436 -0.2105 -2.9542 8.1513 4.0769 3.3791 -4.9594 -3.1523 4.3489 -0.8773 -5.2352 2.2163 2.4220 0.2384 3.9561 -1.6333 0.0163 5.2414 9.7927 0.1453 2.5808 3.4432 -0.0000 -0.0000 0.0000 -82.9705 -3.9608 9.5937 10.1117 -16.9141 -1.5073 -0.0000 0.0000 -6.1900 32.3619 -10.7856 -6.7628 -7.1250 0.0000 -0.0000 3.6866 17.2870 -2.4296 -0.0000 -0.0000 0.0000 91.5496 -10.6062 10.4834 -12.0233 19.8396 -2.1102 0.0000 0.0000 2.6270 -9.5254 -38.5360 5.9680 7.1250 -0.0000 -0.0000 33.3487 -65.9788 -17.7362
8.3290 18.3736 0.0894 1.0127 -59.8447 4.0937 0.0000 0.0000 0.0000 -9.9469 -2.4557 2.1831 0.0028 -0.3413 -0.9377 0.1735 1.8210 -8.7575 0.0253 -1.0269 -2.8229 0.0000 0.0000 0.0000 16.2176 10.9740 12.9696 -0.0709 1.7183 -4.7278 -0.5640 -7.1454 -18.5621 -0.0814 -1.8401 5.0641 3.6084 3.3653 -4.9664 -3.2993 4.3561 -0.8770 -5.1231 2.2151 2.4039 0.4553 4.1361 -2.4092 0.2342 5.4570 9.7452 0.2059 2.7056 3.5756 -0.0000 -0.0000 0.0000 -83.0816 -3.6647 11.1396 11.3909 -18.8850 -1.9005 -0.0000 0.0000 -9.2276 28.0118 -10.9827 -5.7870 -7.1250 0.0000 -0.0000 0.6375 17.5827 -0.4152 -0.0000 -0.0000 0.0000 90.9366 -11.0547 14.2284 -12.7766 20.9590 -2.3728 0.0000 0.0000 2.6578 -0.1085 -36.8500 0.0651 7.1250 -0.0000 -0.0000 40.5934 -62.0979 -18.4928
8.3682 18.3104 0.0760 0.5044 -59.8479 4.4969 0.0000 0.0000 0.0000 -10.0228 -3.9433 3.5638 0.0178 -0.8616 -2.3681 0.2426 2.7311 -10.7219 0.3427 -3.7616 -10.4068 0.0000 0.0000 0.0000 16.5090 10.7394 12.9331 -0.0653 1.6481 -4.5341 -0.5612 -9.6951 -20.8280 -0.0195 -0.9011 2.4767 3.7385 3.3577 -4.8169 -3.1735 4.3417 -0.8628 -5.0744 2.2077 2.3330 0.6031 4.2708 -2.7536 0.3854 5.6215 9.1499 0.2351 2.8031 3.4341 -0.0000 0.0000 0.0000 -83.0537 -3.1143 13.8889 12.9708 -21.2444 -2.4427 -0.0000 0.0000 -13.3612 23.9653 -11.7112 -5.1556 -7.1250 0.0000 -0.0000 -2.2364 17.2046 1.4760 -0.0000 0.0000 0.0000 90.1447 -11.6802 18.0034 -13.7974 22.4443 -2.7503 0.0000 0.0000 2.6275 3.0043 -35.4638 -1.7441 7.1250 -0.0000 -0.0000 41.9165 -60.2771 -17.3911
8.4067 18.2222 0.0547 0.6255 -59.7836 4.2882 0.0000 0.0000 0.0000 -10.3829 -4.8045 4.5533 0.0380 -1.2587 -3.4608 0.2986 3.0006 -11.8713 0.0169 -0.8403 -2.3096 0.0000 0.0000 0.0000 16.6314 10.8200 13.3394 -0.0670 1.6694 -4.5929 -0.5248 -12.6534 -23.4911 -0.0010 -0.2060 0.5661 3.4088 3.2977 -4.6498 -3.0275 4.2798 -0.8094 -4.7489 2.1726 2.2518 1.0613 4.3337 -2.7427 -0.1048 5.7264 8.2232 -0.0117 2.8568 3.1444 -0.0000 0.0000 0.0000 -83.0513 -2.3361 17.3468 14.7995 -23.8661 -3.1444 -0.0000 0.0000 -17.7833 20.2927 -13.1021 -4.7914 -7.1250 0.0000 -0.0000 -4.8437 16.0764 3.3250 -0.0000 0.0000 0.0000 89.0925 -12.3333 22.0431 -15.0557 24.2237 -3.2488 0.0000 0.0000 1.9215 4.4638 -35.1041 -2.5705 7.1250 -0.0000 -0.0000 42.8759 -59.6599 -17.2369
8.4442 18.1204 0.0251 1.8264 -59.7046 3.2109 0.0000 0.0000 0.0000 -11.3172 -5.7314 5.3447 0.0601 -1.5823 -4.3526 0.4076 2.3028 -13.1232 1.8148 8.4692 24.1487 0.0000 0.0000 0.0000 16.3358 11.2216 13.8093 -0.0635 1.6255 -4.4718 -0.4593 -15.5380 -26.1585 -0.0034 0.3751 -1.0308 2.4709 3.2007 -4.5852 -2.9994 4.1956 -0.7439 -4.2000 2.1215 2.2044 1.8407 4.4098 -2.4433 -1.1009 5.8653 7.1433 -0.4790 2.9198 2.7862 -0.0000 -0.0000 0.0000 -83.0423 -1.5918 20.3105 16.4206 -26.0876 -3.8290 -0.0000 0.0000 -20.2300 16.2053 -15.6085 -4.4713 -7.1250 0.0000 -0.0000 -7.6947 13.8634 5.6793 -0.0000 -0.0000 0.0000 88.1047 -12.6595 25.3435 -16.2004 25.7916 -3.7327 0.0000 0.0000 1.4588 4.1439 -35.8619 -2.4304 7.1250 -0.0000 -0.0000 43.4401 -60.3002 -18.1955
8.4793 18.0221 -0.0178 2.9988 -59.4035 2.0889 0.0000 0.0000 0.0000 -11.9161 -5.9844 5.7162 0.0764 -1.7828 -4.9059 0.3869 2.5062 -12.9367 1.6291 8.0465 22.8554 0.0000 0.0000 0.0000 16.5908 12.3375 14.6237 -0.0400 1.2915 -3.5513 -0.4021 -21.0449 -32.3818 -0.0109 0.6750 -1.8550 1.5493 3.1033 -4.3923 -3.0725 4.1121 -0.6320 -3.7718 2.0720 2.1446 2.8878 4.4520 -1.9603 -2.1034 5.9410 5.9235 -0.9974 2.9600 2.3693 -0.0000 0.0000 0.0000 -82.6375 -1.2233 22.6473 18.2984 -28.5375 -4.6909 -0.0000 0.0000 -24.1796 8.2619 -15.7152 -2.2523 -7.1250 0.0000 -0.0000 -13.0057 14.3868 9.6220 -0.0000 0.0000 0.0000 87.6708 -12.5042 27.4584 -16.9327 26.7690 -4.0570 0.0000 0.0000 1.2906 1.4160 -37.1131 -0.8545 7.1250 -0.0000 -0.0000 42.3771 -61.9061 -19.2754
8.5081 17.9815 -0.0810 4.3577 -58.7414 0.3636 0.0000 0.0000 0.0000 -11.9881 -3.6118 4.8266 0.0618 -1.6038 -4.4121 0.2528 0.8225 -9.8322 1.5674 7.9000 22.4108 0.0000 0.0000 0.0000 16.2943 12.5392 15.8869 -0.0525 1.4786 -4.0668 -0.9486 -19.9166 -34.3426 -0.1185 -2.2197 6.1133 0.1928 2.6842 -3.7297 -2.9796 3.6097 -0.3795 -2.9752 1.8086 1.9035 3.5709 4.6463 -1.3379 -3.0035 6.2283 4.8367 -1.4166 3.1022 1.9731 -0.0000 0.0000 0.0000 -82.2325 -0.5831 27.4352 19.8571 -30.4697 -5.4587 -0.0000 0.0000 -24.0571 8.4615 -15.5857 -2.2889 -7.1250 0.0000 -0.0000 -12.8772 14.5012 9.4895 -0.0000 0.0000 0.0000 87.3021 -11.5365 29.0751 -16.8436 26.6512 -4.0169 0.0000 0.0000 1.6946 -2.3121 -38.3445 1.4349 7.1250 -0.0000 -0.0000 40.3814 -63.8095 -19.9887
8.5267 18.0000 -0.1259 5.4821 -58.0592 -0.8165 0.0000 0.0000 0.0000 -12.1495 -1.8617 3.4693 0.0375 -1.2505 -3.4384 0.1518 -0.8377 -7.1098 2.0155 8.8983 25.4777 0.0000 0.0000 0.0000 15.7063 12.4742 16.4709 -0.0619 1.6056 -4.4169 -1.3734 -18.7731 -35.5376 -0.4446 -4.2783 11.8609 -0.8879 2.2338 -3.6876 -2.9562 3.0558 -0.1504 -2.3745 1.5221 2.0270 4.0678 4.8550 -0.5350 -3.6702 6.5295 3.7172 -1.7373 3.2573 1.5297 0.0000 -0.0000 0.0000 -81.5092 -0.4039 31.8960 20.4690 -31.2032 -5.7723 -0.0000 0.0000 -23.4961 8.9427 -16.8873 -2.6173 -7.1250 0.0000 -0.0000 -12.5262 13.1879 9.5747 0.0000 -0.0000 0.0000 87.4670 -9.8028 28.9153 -15.7497 25.1801 -3.5388 0.0000 0.0000 3.3233 -5.7220 -37.0964 3.4586 7.1250 -0.0000 -0.0000 35.3637 -63.7613 -17.1315
8.5458 18.0490 -0.1433 5.3057 -57.5599 -0.7712 0.0000 0.0000 0.0000 -12.0149 -1.7265 2.8491 0.0253 -1.0271 -2.8234 0.1225 -1.2579 -6.2883 2.2019 9.2746 26.6581 0.0000 0.0000 0.0000 15.4921 11.8346 16.0126 -0.0488 1.4250 -3.9190 -1.5908 -17.5208 -35.5313 -0.6337 -5.0933 14.1750 -0.8420 1.8845 -3.9904 -2.8671 2.5991 -0.0190 -2.3214 1.2951 2.3131 3.5635 5.0878 0.1931 -3.0611 6.8414 3.3491 -1.4710 3.4208 1.2515 0.0000 -0.0000 0.0000 -80.8944 -0.5712 35.8040 19.9890 -30.6291 -5.5257 -0.0000 0.0000 -21.7836 10.1273 -18.7947 -3.2936 -7.1250 0.0000 -0.0000 -11.7336 11.2115 9.4334 0.0000 -0.0000 0.0000 88.1056 -7.9422 26.1921 -14.1797 22.9911 -2.8979 0.0000 0.0000 6.8134 -8.3539 -36.0579 4.9400 7.1250 -0.0000 -0.0000 31.4062 -63.6168 -14.9063
8.5726 18.0904 -0.1505 3.4291 -57.1298 0.9081 0.0000 0.0000 0.0000 -10.9068 -2.0635 2.3501 0.0185 -0.8772 -2.4110 0.1252 -1.2955 -6.3544 2.2093 9.2891 26.7038 0.0000 0.0000 0.0000 16.1699 10.7675 14.7288 -0.0248 1.0157 -2.7921 -2.0221 -14.7860 -35.5211 -1.2493 -7.0866 19.9722 0.4763 1.6981 -4.4551 -2.6295 2.2940 -0.0301 -2.8220 1.1607 2.5936 2.6185 5.1707 0.5102 -1.8625 6.9311 3.8021 -0.9367 3.4685 1.2536 -0.0000 0.0000 0.0000 -80.5344 -1.1257 38.9057 18.7176 -29.0662 -4.8929 -0.0000 0.0000 -18.5427 10.8039 -20.2065 -3.7711 -7.1250 0.0000 -0.0000 -11.3054 9.7517 9.4173 -0.0000 0.0000 0.0000 89.0917 -6.2147 20.8372 -12.6492 20.7711 -2.3274 0.0000 0.0000 11.7170 -10.8645 -35.3907 6.3426 7.1250 -0.0000 -0.0000 28.0093 -63.7189 -13.2245
